<svg width="200" height="200" id="Layer_1" data-name="Layer 1" xmlns="http://www.w3.org/2000/svg" viewBox="0 0 1080 1080"><defs><style>.cls-1{fill:#ffff;}</style></defs><title>gents logo</title><path d="M332.35,532.27c0-36.19,24.9-56.77,53.79-56.77a48.7,48.7,0,0,1,35.19,14.27L406.39,508c-5.31-4.65-10.63-8-19.26-8-14.61,0-25.56,11.62-25.56,31.21,0,20.25,9,31.54,28.22,31.54,3,0,6.31-.66,8.3-2V545.88H382.15V522.64h41.17V574.1c-7.64,7.3-21.25,13.28-36.52,13.28C356.59,587.38,332.35,569.12,332.35,532.27Z"/><path d="M445.9,477.49h69.72v23.9H474.45v16.93h35.19v23.91H474.45v19.25h42.83v23.91H445.9Z"/><path d="M539.85,477.49h29.22L593,525.63l10.29,24.23h.67c-1.33-11.62-3.66-27.88-3.66-41.16V477.49H627.5v107.9H598.28l-23.9-48.31L564.09,513h-.67c1.33,12.29,3.65,27.89,3.65,41.17v31.21H539.85Z"/><path d="M673.65,501.39H645.09v-23.9h85.66v23.9H702.2v84H673.65Z"/><path d="M738.39,571.94l16.27-19.59c7.63,6.15,17.26,10.46,25.23,10.46,8.63,0,12.28-2.82,12.28-7.63,0-5.15-5.48-6.81-14.61-10.46l-13.44-5.65c-11.62-4.64-21.75-14.44-21.75-30,0-18.43,16.6-33.53,40.17-33.53a51.84,51.84,0,0,1,35.86,14.44l-14.28,17.93c-7.3-5.15-13.61-7.81-21.58-7.81-7,0-11.29,2.49-11.29,7.31,0,5.14,6.15,7,15.94,10.79l13.12,5.14c13.44,5.32,21.08,14.61,21.08,29.55,0,18.26-15.27,34.53-42.17,34.53C765.61,587.38,750,582.4,738.39,571.94Z"/><path class="cls-1" d="M257.42,512a1.7,1.7,0,1,1-1.69,1.7,1.69,1.69,0,0,1,1.69-1.7Z"/><path class="cls-1" d="M257.42,526.49a1.7,1.7,0,1,1-1.69,1.7,1.69,1.69,0,0,1,1.69-1.7Z"/><path class="cls-1" d="M257.42,541a1.7,1.7,0,1,1-1.69,1.7,1.69,1.69,0,0,1,1.69-1.7Z"/><path d="M295.78,479.05a.13.13,0,0,1,0-.06l-1.2-.75,0,0-5.14-3.22a7.91,7.91,0,0,0-1.21,1.49c-1.25,2.54-2.37,5.16-3.67,7.68-1.1,2.14-2.08,4.37-3.25,6.44-2.29,4.05-4.06,8.41-6.5,12.37a71.52,71.52,0,0,0-3.18,6.59c0,1-.74,5.91-1,7.07s-.24,2.47-.49,3.73c-.54,2.72-.55,5.55-1.1,8.29-.45,2.27-.64,4.61-.94,6.9-.2,1.61-6.67,49.58-6.85,51.58,0,.34-.17.68-.22,1-.11.8-.17,1.61-.3,2.41s-.3,1.37-.59,2.72c2-2.49,3.56-4.43,5.13-6.37,1.34-1.66,2.82-3.21,4-5,1.73-2.61,3.86-4.83,5.72-7.29,1.45-1.93,3.14-3.65,4.54-5.61a80.29,80.29,0,0,1,6.25-7.92,6.31,6.31,0,0,0,.55-.6,63.6,63.6,0,0,1,5.66-7.36c1.26-1.44,2.34-3.06,3.56-4.69q-3.12-7.21-6.24-14.43c3.65-1.18,7.33-2.42,11-3.54.65-.2,1.2-.46,1.28-1.09.21-1.78,1.12-3.27,1.59-4.94,1-3.6,2.06-7.19,3.24-10.72.84-2.53,1.66-5.09,2.46-7.65s1.73-5.26,2.58-7.89,1.66-5.2,2.45-7.66Z"/><path d="M225.44,534.15l-12-4c-4.12-12.91-8.35-26.17-12.61-39.56l28.7-15.69c.49,2.33,1.63,4.25,2.31,6.39a39.05,39.05,0,0,0,2.09,5.27c1.71,3.48,2.87,7.2,4.38,10.76,1.2,2.84,4.29,10.89,4.78,12s1.11,7.6,1.14,8c.16,1.62.41,3.24.5,4.86s.42,3.06.64,4.56c.35,2.39.7,4.78.94,7.19.1.87.37,1.73.5,2.6s5.62,40,5.81,43.26c.14,2.27.7,4.58.92,6.9.1,1.07.7,2,.58,3.16a15,15,0,0,0,.45,3.29c-.72-.78-1.24-1.3-1.7-1.88s-.92-1.28-1.39-1.91c-.26-.36-.54-.71-.82-1-1.77-2.12-3.62-4.17-5.29-6.39-2.08-2.77-4.23-5.46-6.39-8.15s-4.22-5.46-6.41-8.13c-2.41-2.95-4.79-5.94-7.13-8.94-2-2.58-3.92-5.27-6.15-7.83Z"/><path d="M243.78,469.64c4.09,2.59,8,5,12,7.81l12.31-7.69a2.94,2.94,0,0,1,.35.36.44.44,0,0,1,.09.24c0,6,0,12,0,18.31-2.53-.58-4.33-2.45-6.47-3.53a60,60,0,0,1-6.1-4c-2.08,1.11-3.89,2.75-6,3.79s-3.86,2.78-6.17,3.82Z"/></svg>